<svg xmlns="http://www.w3.org/2000/svg" width="99" height="97" viewBox="0 0 99 97">
  <g id="Layer_1" transform="translate(0 -0.232)">
    <g id="Group_191" data-name="Group 191">
      <ellipse id="Ellipse_12" data-name="Ellipse 12" cx="49.5" cy="48.5" rx="49.5" ry="48.5" transform="translate(0 0.232)" fill="#1e8988"/>
      <g id="Group_190" data-name="Group 190" transform="translate(14.172 16.193)">
        <path id="Path_349" data-name="Path 349" d="M324.58,152.607a15.422,15.422,0,0,1-1.875-.982c-.819-.455-1.354-1.059-.783-1.9.817-1.154,2.47-1.2,3.67-1.668.937-.473,1.887-.941,2.776-1.5.635-.378,1.383-.56,2.03-.891.221-.1.438-.219.659-.325.589-.292,1.309-.351,1.931-.595a10.9,10.9,0,0,0,1.276-.641,27.064,27.064,0,0,0,3.475-1.724c.447-.256,1.2-.622,1.627-.3a.561.561,0,0,1,.1.75c-.24.4-.711.6-1.023.922a24.855,24.855,0,0,1-2.117,2.014c-1.478,1.226-3.109,2.266-4.577,3.5-.881.783-1.8,1.406-.513,2.392.755.645,1.532,1.28,2.282,1.929a2.833,2.833,0,0,1,1.027,1.48c.184.848-.69,1.274-1.387,1.5-1.278.444-2.5,1.029-3.785,1.455-.674.219-1.385.31-2,.568-.382.153-.736.358-1.121.5-.358.136-.721.215-1.081.331-.536.17-.965.511-1.522.709a12.462,12.462,0,0,0-1.354.562c-.42.217-.85.469-1.3.655-1.342.535-2.65,1.2-4.025,1.633-.759.194-1.269-.31-.864-1a3.375,3.375,0,0,1,.788-.841c2.857-2.39,6.022-4.387,8.863-6.773.856-.893-.461-1.393-1.151-1.732l-.031-.014Z" transform="translate(-268.937 -130.647)" fill="#8ecdcb"/>
        <path id="Path_350" data-name="Path 350" d="M329.188,287.144a6.767,6.767,0,0,1-1.623-.457c-.8-.252-1.536-.42-2.388-.657-1.993-.75-4.085-1.325-6.03-2.214-.8-.407-1.764-.585-2.524-1.058-.364-.275-.455-.657-.081-.914.813-.523,1.826-.076,2.737-.1.965-.085,3.025.354,3.616-.509.225-.385,0-.827-.19-1.183-.308-.535-.626-1.089-.881-1.641a11.716,11.716,0,0,1-.945-2.287c-.1-1.937,2.869-.655,3.851-.314.965.36,1.735.846,2.7,1.12a14.477,14.477,0,0,0,2.7.839,28.259,28.259,0,0,1,5.39,1.542c1.121.5,1.032,1.555-.26,1.4-.67-.091-1.327-.331-2-.4a22.669,22.669,0,0,0-3.9.219c-.482.066-1.255-.087-1.513.413-.1.5.323.988.525,1.422.4.722.74,1.557,1.094,2.344.354.721.912,2.225-.258,2.431Zm.085-8.886a.706.706,0,0,1-.068-.025c-.008.019-.025.052-.019.058a.2.2,0,0,0,.066.027C329.259,278.3,329.265,278.277,329.273,278.257Z" transform="translate(-269.21 -237.993)" fill="#8ecdcb"/>
        <g id="Group_189" data-name="Group 189">
          <rect id="Rectangle_26" data-name="Rectangle 26" width="11.05" height="13.56" transform="translate(43.211 1.434) rotate(14.93)" fill="#8ecdcb"/>
          <rect id="Rectangle_27" data-name="Rectangle 27" width="11.05" height="13.56" transform="translate(26.7 48.902) rotate(14.93)" fill="#8ecdcb"/>
          <path id="Path_351" data-name="Path 351" d="M113.813,84.668l-3.471,12.607s-19.8-4.805-24.736,10.552c-5.512,17.145,12.41,24.215,12.41,24.215l-3.7,12.8c-15.791-5.983-24.9-22.774-19.671-39.032S97.495,80.33,113.813,84.672Z" transform="translate(-73.169 -83.601)" fill="#8ecdcb"/>
        </g>
      </g>
    </g>
  </g>
</svg>
