<?xml version="1.0" encoding="UTF-8"?>
<svg id="Layer_2" xmlns="http://www.w3.org/2000/svg" viewBox="0 0 648.71 390.29">
  <defs>
    <style>
      .cls-1 {
        fill: #be9638;
      }

      .cls-2 {
        fill: #b48d30;
      }

      .cls-3 {
        fill: #b78f32;
      }

      .cls-4 {
        fill: #a88229;
      }

      .cls-5 {
        fill: #cda645;
      }

      .cls-6 {
        fill: #c79f40;
      }

      .cls-7 {
        fill: #ba9134;
      }

      .cls-8 {
        fill: #ba9335;
      }

      .cls-9 {
        fill: #e9c957;
      }

      .cls-10 {
        fill: #08131e;
      }

      .cls-11 {
        fill: #ad862b;
      }

      .cls-12 {
        fill: #a68027;
      }

      .cls-13 {
        fill: #c29a3a;
      }

      .cls-14 {
        fill: #dfaf3c;
      }

      .cls-15 {
        fill: #d4ad4b;
      }
    </style>
  </defs>
  <g id="Layer_1-2" data-name="Layer_1">
    <g>
      <path class="cls-7" d="M477.76,323.24c-.07,9.38,6.94,15.68,8.62,25.41,2.43,12.26-3.12,25.64-14.61,31.3-11.32,6-27.28,6.35-40.67,6.36-17.71.08-25.96-5.2-26-24.05-.12-22.34.11-44.7.06-67.05.05-6.01.34-12.91,3.51-17.9,6.66-9.57,18.71-7.86,30.61-7.79,6.84.28,13.91.92,20.37,2.55,16.12,3.56,25.76,16.26,22.9,32.52-1.2,6.62-4.69,13.33-4.79,18.52v.13ZM465.07,365.86c9.07-7.94,5.49-21.28-4.42-27.29-3.38-2.19-7.35-3.69-11.44-4.6-10.35-2.44-23.27-1.52-26.26,10.59-1.63,5.7-1.6,13.56.43,18.88,2.82,8.49,12.39,10.58,20.48,9.71,7.35-.68,15.69-2.45,21.08-7.18l.13-.11ZM459.37,289c-7.8-5.86-20.8-8.83-29.91-4.44-8.21,4.46-9.02,15.89-6.96,24.15,3.01,12.37,16.95,12.7,27.13,9.72,14.87-3.48,22.89-18.17,9.88-29.31l-.14-.12Z"/>
      <path class="cls-12" d="M9.78,362.45c-11.05-21.6-10.86-51.18,2.18-71.96,14.1-21.56,44.18-26.32,67.95-21.12,5.74,1.08,14.93,5.28,15.62,10.67.37,1.94-.54,3.62-2.22,4.56-8.35,3.75-18.47-1.57-27.6-1.06-4.44,0-9,.61-13.34,1.79-31.56,8.37-41.11,43.27-23.74,69.26,9.09,13.98,27.17,20.6,43.23,17.08,11.64-2.41,15.91-17.38,8.84-26.68-3.6-4.93-10.24-7.65-14.34-11.81-6.02-7.01,6.97-10.25,13.64-10.19,15.03-.1,21.51,7.05,21.59,22.14.27,14.61,1.56,32.71-14.39,38.55-25.15,8.6-63.11,3.72-77.36-21.08l-.08-.15Z"/>
      <path class="cls-1" d="M628.27,307.5c15.79,10.99,21.35,34.23,15.88,52.33-6.09,21.12-30.26,30-50.48,26.51-24.61-3.12-34.3-32.47-29.85-54.35,1.71-8.54,5.41-16.72,12.03-22.44,14.2-12.06,37.08-12.65,52.27-2.16l.15.11ZM619.24,319.96c-6.93-5.71-17.12-6.7-25.05-2.4-12.95,6.88-18.26,23.93-13.6,37.49,4.77,14.89,22.02,22.53,35.74,14.24,17.17-9.55,17.43-37.3,3.05-49.21l-.14-.11Z"/>
      <path class="cls-3" d="M248.52,193.98c-17.43-8.85-33.13-21.5-46.56-35.72-6.8-7.68-15.22-15.64-18.13-25.58-2.55-11.96,8.97-9.82,16.21-3.51,5.02,4.05,9.45,9.45,14.12,14.02,9.54,9.51,20.75,17.85,32.22,25.1,14.62,9.3,31.58,15.63,48.89,19.38,10.7,2.36,22.13,4.05,32.54,6.49,7.46,1.48,17.71,7.01,10.17,14.17-21.41,16.91-67.23-3.89-89.28-14.25l-.19-.1Z"/>
      <path class="cls-8" d="M389.95,316.92c-1.86,8.93-5.11,17.47-7.47,26.35-3.27,10.35-5.26,22.1-10.34,31.61-8.21,14.9-21.16,13.52-28.2-1.42-3.28-6.71-5.18-14.08-7.63-21.13-2.37-7.09-4.75-14.12-8.85-20.22-4.09-7.56-15.45-19.5-8.12-27.47,4.35-4.2,9.81-2.62,14.33,2.4,10.5,12.15,10.98,32.04,19.11,45.58,6.81,9.9,11.49-14.03,13.57-19.77,2.63-8.75,4.97-18.03,9.48-24.07,8.47-11.53,16.64-5.17,14.16,7.95l-.03.19Z"/>
      <path class="cls-5" d="M357.5,44.69c-2.25,8.56-8.4,15.89-16.79,18.96-3.71,1.29-7.79,2.79-11.23,1.47-3.39-1.25-5.45-5.84-7.49-9.98-2.06-3.82-4.8-7.77-6.24-11.91-1.68-4.42-2.01-9.04-4.41-11.95-5.14-6.09-20.73-7.59-12.06-18.71,11.88-14.24,37.57-13.63,50.34-.73,8.12,8.18,10.9,21.69,7.93,32.67l-.05.18Z"/>
      <path class="cls-4" d="M164.96,313.01c-10.89,9.43-20.69,10.33-24.08,26.78-2.24,10.12-1.69,20.95-1.84,31.23-.28,6.02-.3,10.19-2.75,14.17-4.54,6.73-11.41.21-13.41-5.21-3.03-7.05-2.61-14.71-2.66-23.11,0-4.93.02-9.85.04-14.79.46-11.02-1.55-24.21,2.8-33.59,4.64-9.13,15.26-5.04,23.47-6.47,6-.37,12.94-3.14,18.66-.45,5.16,2.74,3.76,7.91-.11,11.32l-.11.11Z"/>
      <path class="cls-3" d="M322.54,325.5c4.72-2.86,6.53,3.73,6.29,7.88-.1,6.46-2.16,12.54-4.21,19.08-3.72,10.05-6.14,23.09-14.78,29.99-4.76,4.1-11.44,4.41-15.75-.44-5.39-5.87-6.96-13.64-9.88-21.03-4.46-12.06-9.18-24.61-13.1-36.96-1.84-5.89-3.72-14.06-.67-18.71,2.14-3.51,7.2-1.67,10.22,1.78,4.08,4.32,6.23,9.53,8.25,15.4,2.78,8.1,4.72,16.59,7.99,24.49,8.21,19.46,14.32-3.38,18-11.49,1.77-3.71,4.11-7.71,7.55-9.93l.09-.05Z"/>
      <path class="cls-11" d="M185.28,313.2c7.4-9.12,19.3-13.12,31.82-14.15,4.2-.4,27.71.34,19.9,8.2-5.55,3.84-12.28,5.55-19.26,7.82-4.26,1.39-8.34,3.07-11.78,5.59-13.37,9.63-14.84,30.4-5.4,43.14,2.71,3.76,6.56,6.42,10.63,8.5,7.88,3.91,11.47,5.56,1.91,9.02-11.83,3.78-22.89,2.08-30.02-8.64-11.57-16.52-9.77-43.02,2.09-59.34l.11-.14Z"/>
      <path class="cls-2" d="M232.61,315.08c-2.35-5.31.09-11.08,6.11-9.88,6.53,1.21,14.78,7.93,18.62,14.49,9.16,14.24,9.98,34.08.85,48.57-6.86,11.11-19.41,17.59-32.15,19.24-7.42.82-14.55.88-18.66-2.36-3.71-4.06,13.7-10.7,16.66-12.99,4.05-2.37,7.7-5.2,10.54-8.6,6.03-7.18,8.51-16.69,6.64-25.7-2.04-8.49-5.95-14.88-8.59-22.63l-.04-.12Z"/>
      <path class="cls-13" d="M327.49,210.66c.08-2.46,1.18-6.22.66-9.21-.3-3.38-2.24-6.13-1.66-7.7.8-1.64,2.45-1.87,5.86-2.81,3.33-.78,7.92-1.58,11.63-2.21,13.68-2.38,26.27-5.62,39.21-9.66,9.38-2.87,25.19-10.54,33.41-3.48,10.3,13.51-31.44,27.38-40.98,30.31-11.52,3.6-23.8,6.6-36,7.82-5.2.26-12.07,1.4-12.12-2.98v-.08Z"/>
      <path class="cls-6" d="M164.44,108.46c-12.72-8.71-12.27-31.47,1.64-38.83,17.33-8.83,36.89,3.95,33.95,23.73-2.41,16.62-21.89,24.32-35.44,15.21l-.15-.11Z"/>
      <path class="cls-8" d="M506.84,368.59c-2.26-8.08-2.22-17.11-2.23-25.95.44-11.23-1.85-27.55,4.61-36.97,4.46-6.19,12.03-1.89,18.2-2.61,5.99-.29,12.72-4.52,18.39-3.7,2.29.34,4.77,1.64,5.52,3.9,2.01,8.36-14.61,14.71-19.14,21.08-6.14,7.3-8,17.16-8.7,27.46-.58,7.49-.3,19.69-3.72,25.25-5.1,7.54-11.67-2.88-12.9-8.32l-.05-.15Z"/>
      <path class="cls-15" d="M459.79,70.66c13.98-8.32,33.46-1.45,35.42,15.84,2.24,15.98-8.63,26.75-24.77,24.81-8.09-.95-15.28-5.61-18.22-13.1-3.9-9.33-1.59-22.04,7.42-27.45l.15-.09Z"/>
      <path class="cls-5" d="M413.74,187.06c-5.5-.34-12.09-10.33-11.66-15.42.61-3.33,4.01-6.35,6.89-8.91,10.12-8.06,21.23-19.06,31.89-25.66,14.24-7.69,15.55,5.64,10.09,15.98-5.47,10.07-13.99,18.25-22.89,25.87-5.05,3.77-9.2,7.91-14.22,8.15h-.1Z"/>
      <path class="cls-15" d="M449.51,156.61c-1.84-.97-1.74-5.28-3-9.04-.67-2.23-1.75-4.29-3.06-5.88-1.77-2.35-5.02-4.5-4.47-7.77,2.22-8.5,19.03-18.67,26.26-10.06,6,9.2-3.36,21.19-9.44,27.97-3.12,3.32-5.09,5.07-6.23,4.78h-.06Z"/>
      <path class="cls-9" d="M474.46,270.74c-.88.27-11.06-1.52-15.17-2.13-8.93-1.39-18.25-1.73-27.33-1.74-4.66.03-9.33.28-13.66,1.46-15.21,3.77-14.54,19.73-14.4,33.45-.35,20.5.73,42.75-.8,62.89-1.14-20.46-.15-42.8-.46-63.59-.03-18.57-2.34-34.44,20.48-35.53,15.67-.7,37.31.1,51.34,5.19h0Z"/>
      <path class="cls-13" d="M285.12,361.06c.37-.12.98,1.1,1.75,3.29.91,2.54,2.21,6.37,3.48,9.24,2.47,6.43,8.86,14.1,16.22,9.77,3.74-2.12,7.27-7.23,9.69-10.06.24-.24.21-.24.41-.41.18-.16.46-.41.61-.19.21,4.71-4.53,11.94-9.09,15.1-12.33,8.08-20.97-8.88-22.6-19.15-.45-1.9-1.25-7.46-.49-7.58h.02Z"/>
      <path class="cls-1" d="M506.84,369.45c.93-1.1,2.1-1.11,3.26-.56,3.4,1.77,7.01,4.51,10.24,6.95,3.26,2.29,5.17,6.5,1.68,9.82-2.19,2.22-5.32,4.14-8.54,3.49-7.73-1.35-10.83-14.01-6.7-19.62l.06-.07ZM513.91,382.46c1.34-1.61-1.61-3.91-2.66-1.83-.7,1.33,1.38,3.01,2.54,1.94l.11-.11ZM512.26,376.96c.22-.64-.94-.98-1.19-.38-.26.65.77,1.03,1.13.51l.07-.13Z"/>
      <path class="cls-6" d="M286.65,358.32c-.07.52-.74-.27-1.87-2.23-2.98-4.91-8.25-17.4-11.35-24.77-5.67-13.19-15.89-32.68,6.39-32.78,3.48.17,6.37.48,1.8,1.75-15.34,4.22-12.27,14.9-6.93,27.59,3.95,9.96,9.72,20.73,11.96,30.43v.03Z"/>
      <path class="cls-13" d="M338.24,360.74c.67.31,2.13,3.65,4.77,7.99,4.96,8.98,12.04,13.71,21.1,17.71,2.36,1.11,4.41,2.53-.5,3.01-10.93.97-19.35-6.7-23.16-16.79-1.21-2.9-2.1-6.21-2.42-8.4-.37-2.45-.27-3.76.19-3.54h.03Z"/>
      <path class="cls-6" d="M104.18,376.74c-1.13-6-.71-14.39-.8-20.91-.05-8.51.38-17.64-2.39-24.03-3.88-9.92-15.32-11.56-24.9-11.76-4.11-.26-12.28-.04-14.19-.76,2.92-.5,11.63-.64,16.53-.59,25.46.06,27.73,11.78,27.06,34.89.02,6.59-.1,14.29-.66,20.58-.19,2.03-.42,2.94-.63,2.61v-.02Z"/>
      <path class="cls-14" d="M137.76,297.75c-5.16,2.49-12.5,5.88-14.69,12.69-2.16,5.6-1.89,13-1.94,20.23,0,4.95.01,9.9.01,14.85-.13,6.36.09,12.96-.91,18.85-.36.88-.54-1.43-.6-1.77-.47-4.76-.57-10.9-.52-18.23.02-5.16.05-10.31.06-15.45.09-7.45-.42-15.25,2.09-20.94,2.18-5.63,8.32-8.99,13.84-10.15,1.87-.39,2.87-.36,2.67-.09v.02Z"/>
      <path class="cls-9" d="M358.21,358.72c-.92-.92-2.34-4.56-3.33-6.66-2.54-5.81-5.01-12.13-7.38-18.14-3.41-8.4-6.35-17.74-12.02-24.33-2.66-3.19-6.39-6.47-9.19-9.17-2.83-2.68-2.48-3.25.78-1.37,13.8,7.28,16.99,21.56,22.63,35.65,2.94,8.15,7.01,17.05,8.51,24.01h0Z"/>
      <path class="cls-1" d="M101.35,379.71c.28.2-.88.93-3.27,2.04-1.57.73-3.66,1.61-6.1,2.53-14.79,5.97-35.65,6.95-50.16,3.62-3.15-.8.05-.92,1.69-.91,8.33,0,17.98.52,26.58-.52,6.66-.66,13.24-2.29,19.67-4.1,3.94-1.09,11.49-3.18,11.57-2.67h.02Z"/>
      <path class="cls-10" d="M404.69,368.47c-.27,33.78-1.95,15.88-1.69-5.81.22-29.05-.53-61.71.39-90.19.71-10.23,1.21,4.02,1.2,6.95.14,29.52.14,59.35.1,88.83v.23Z"/>
      <path class="cls-14" d="M319.88,213.16c7.8-.22,15.61-.43,23.49-1.47,8.57-.97,18.6-3.38,26.66-5.11,8.25-1.8,9.27-1.33,2.94.8-16.83,5.35-35.02,7.7-52.7,7.53-15.43-.45-11.39-1.54-.61-1.73h.22Z"/>
      <path class="cls-14" d="M402.55,376.9c-1.12-3.61-1.6-6.33-1.04-6.99.29-.03.78.96,1.67,2.54,1.37,2.47,3.36,5.62,5.58,7.9,4.73,5.2,11.21,6.66,18.92,6.85,7.07.28,15.22-.31,21.98,1,.35.15.21.31-.43.47-2.94.58-6.64.71-10.48.9-7.74.08-17.65.98-24.79-1-5.57-1.33-9.72-6.31-11.35-11.5l-.06-.17Z"/>
      <path class="cls-7" d="M181.06,319.73c2,1-.89,13.61-1.01,16.53-1.53,9.71-1.09,17.06-3.02,24.4-1.07,1.56-1.99-8.97-2.06-10.74-.55-7,.65-17.05,2.66-23.39,1.28-4.37,2.54-6.86,3.38-6.8h.04Z"/>
      <path class="cls-14" d="M318.3,364.98c-.12-2.9.86-6.5,1.28-9.6.95-5.41,2.44-13.17,4.14-18.82,2.31-7.99,6.35-17.05,11.1-3.95.78,2.12,1.41,4.41,1.82,6.31.76,3.71,1,6.67-.59,1.88-3.15-8.61-6.46-15.6-10.44-2.2-1.81,5.84-3.6,14.29-5.22,20.19-.65,2-1.05,4.66-2.09,6.2h-.01Z"/>
      <path class="cls-7" d="M8.09,294.62c.4,4.75-2.82,8.38-3.91,12.69-3.82,15.15-3.78,30.1,1.53,44.93.77,2.15,1.66,4.37,1.27,6.78-1.15-1.02-1.68-2.35-1.88-3.84-.24-.48-.47-.95-.71-1.42-6.12-18.79-6.08-37.4,1.73-55.76.51-1.19,1.31-2.25,1.98-3.38Z"/>
      <path class="cls-14" d="M564.74,319.79c.33.07.34,1.41.08,3.8-.55,4.94-1.57,11.13-1.7,16.44-.6,10.3,3.51,21.61,5.57,30.32.63,2.75.18,3.61-1.66.71-7.37-11.74-9.67-28.58-5.94-41.89,1.45-5.36,2.53-8.67,3.62-9.39h.02Z"/>
      <path class="cls-14" d="M318.77,316.03c-2.05,8.33-6.59,21.8-9.79,31.13-.58,1.75-7.53,20.94-6.28,13.82-.7-.62,20.99-67.39,16.11-45.12l-.04.17Z"/>
      <path class="cls-9" d="M302.19,362.37c-.05.06-.13,0-.24-.17-.52-.9-.9-2-1.31-3.08-1.54-4.11-4.53-13.84-6.35-20.19-2.93-10.51-6.94-22.26-8.17-30.9.07-.68.6.61.85,1.17,2.98,7.42,5.65,16.82,8.09,24.96,2.05,7.23,6.94,22.92,7.14,28.2h0Z"/>
      <path class="cls-14" d="M521.37,334.31c.95-3.02,7.67-10.42,11.87-13.49,5.13-3.77,11.44-6.34,17.07-7.25,2-.21.36.8-.48,1.21-3.82,2.02-8.86,3.95-14.83,8.09-4.11,2.77-8.37,6.9-11.67,10.01-1.16,1.07-1.83,1.58-1.95,1.43h0Z"/>
      <path class="cls-14" d="M293.69,18.94c.63.06,1.05,2.3,1.48,6.19.57,5.44,1.62,14.57,2.41,20.26.35,2.6.63,4.73.73,6.21.09,1.38.02,2.2-.25,2.41-1.85,0-4.83-8.54-5.88-13.69-1.08-5.21-1.26-11.23-.39-16.32.44-1.92.63-4.36,1.86-5.05h.04Z"/>
      <path class="cls-14" d="M587.37,387.61c0-.24.7-.43,2.04-.59,1.12-.13,2.68-.23,4.6-.34,3.79-.2,8.04-.4,11.96-.86,8.95-1.01,15.08-2.96,21.35-3.77.71-.05,1.69-.13.93.52-8.9,5.08-23.1,7.67-33.32,6.52-4.71-.38-7.49-1.02-7.54-1.47v-.02Z"/>
      <path class="cls-9" d="M487.61,367.81c-2.2-.65-3.36-42.51,1.3-26.34,1.57,6.48,1.81,16.5.53,22.95-.26.95-.73,3.89-1.79,3.43l-.04-.03Z"/>
      <path class="cls-9" d="M102.15,277.42c-3.58-.45-13.61-4.52-19.23-6.07-6.56-2.19-13.99-3.43-19.62-5.59-.24-.18.03-.27.79-.26.62,0,1.57.08,2.81.22,6.96.86,14.57,2.55,21.28,5.05,6.34,2.35,11.34,4.77,13.16,5.88.28.2.94.52.83.76h-.02Z"/>
      <path class="cls-14" d="M320.97,67.09c-.05,2.95-17.58-7.21-18.98-8.8-9.08-7.47,4.83-.98,7.98.95,3.42,1.95,9.4,5.43,10.97,7.79l.02.06Z"/>
      <path class="cls-9" d="M359.09,44.49c-1.48,1.01-9.31-34.39-5.94-30.77,4.53,7.13,6.73,17.68,6.91,25.81,0,1.32-.08,2.81-.32,3.89-.16.7-.37,1.06-.61,1.07h-.04Z"/>
      <path class="cls-6" d="M117.97,370.59c.46-.11,1.29,1.35,2.93,3.59,3.28,4.62,8.89,10.28,11.74,15.1.83,2.18-2.24.47-5.31-1.64-4.83-3.45-9.17-9.22-9.72-15.14-.09-1.13.04-1.8.31-1.9h.03Z"/>
      <path class="cls-14" d="M201.32,384.63c6.95-.2,19.83,1.2,27.22,2.03,2.11.23,6.42.84,2.84,1.67-7.56,1.43-17.28.59-24.49-.89-1.1-.16-10.32-2.32-5.69-2.8h.12Z"/>
      <path class="cls-9" d="M449.24,78.12c.45.12,1.1,1.8,1.96,4.73,1.59,5.45,2.9,13.4,3.15,19.19,0,.72.26,4.16-.84,3.34-3.24-4.01-7.17-22.59-4.31-27.27h.03Z"/>
      <path class="cls-14" d="M164.18,113.06c.11-.59,2.27-.89,5.91-1.34,2.6-.31,6-.88,9.55-1.66,5.44-1,10.52-2.92,15.33-3.97,1.7-.24.65,1.09-.05,1.69-4.71,4.58-16.13,8.78-24.18,7.41-2.25-.34-5.83-.73-6.57-2.09v-.03Z"/>
      <path class="cls-9" d="M648.39,352.27c-1.44-2.72-2.85-11.84-4.31-16.83-1.41-6.39-3.9-13.02-4.51-18.68.44-.97,2.43,3.87,2.79,4.64,2.95,6.84,5.16,14.87,5.93,22.17.27,2.42.5,5.42.39,7.59-.04.74-.14,1.12-.28,1.12h-.02Z"/>
      <path class="cls-6" d="M261.88,199.97c.03-.12.28-.17.75-.13,1.41.15,3.11.61,4.63,1,4.83,1.26,13.24,4.17,18.18,6.32.74.38,6.4,2.58,5.38,3.11-4.74-.29-10.39-2.43-15.53-4.12-4.11-1.57-11.56-4.19-13.42-6.16v-.02Z"/>
      <path class="cls-14" d="M158.29,73.34c.62.16.54,2.24.31,5.8-.56,7.26-.68,17.22-1.46,24.49-.25,1.41-.94,1.3-1.58.21-3.19-4.73-4.03-16.61-1.47-23.39.98-2.63,2.32-6.42,4.15-7.12h.04Z"/>
      <path class="cls-14" d="M139.57,384.56c-1.05-7.54-.61-14.97-.75-25.02.03-5.93-.01-20.85.87-24.65.1-.15.2.17.28.85.1.77.18,2.04.26,3.73.26,6.05.25,13.74.19,20.38-.11,6.79.03,20.52-.83,24.72h-.01Z"/>
      <path class="cls-3" d="M84.59,340.97c.97.29,1.15,2.32,1.48,3.62,1.53,7.2.02,15.88-1.75,22.48-2.42,9.12-3.69,3.87-3.45-2.5-.04-5.17,1.52-13.09,2.17-18.02.44-3.42.94-5.41,1.51-5.57h.04Z"/>
      <path class="cls-14" d="M509.87,299.31c1.02,3.58-.76,11.76-1.85,16.11-1.23,4.29-1.98,9.22-2.72,12.86-1.89,6.59-2.57-11.31-1.99-12.65-.05-2.55,4.77-19.13,6.54-16.37l.03.06Z"/>
      <path class="cls-1" d="M57.65,282.31c-.04-.16.17-.27.6-.34,1.28-.17,2.92-.05,4.35.03,6.9.63,16.72,2.14,22.75,5.36,1.5,1.31-5.36.31-6.76.23-5.81-.67-16.65-2.54-20.94-5.26v-.03Z"/>
      <path class="cls-9" d="M343.53,5.58c.74,1.56-35.02-3.27-29.91-4.93,5.7-1.9,25.41.55,29.92,4.9v.03Z"/>
      <path class="cls-9" d="M172.03,316.57c-2.32-8.44-6.58-13.26-14.24-17.98-.7-.48-1.51-1.21-.09-.75,5.61,2.08,12.51,6.23,14.34,12.81.53,1.66.8,3.77.58,5.2-.13.82-.36,1.09-.57.75l-.02-.03Z"/>
      <path class="cls-9" d="M494.91,101.97c-.57-.15-1-1.72-1.41-4.46-.68-4.01-1.11-10.35-.68-14.59.2-1.62.54-7.54,2.11-5.7,2.69,3.87,3.78,22.31.02,24.76h-.05Z"/>
      <path class="cls-9" d="M459.08,110.03c.08-2.24,26.54.98,23.91,3.6-3.69,1.88-21.72-.28-23.91-3.55v-.05Z"/>
      <path class="cls-5" d="M393.62,306.84c-4.35,1.34-11.68-1.72-15.48-4.4-.89-.59-1.66-1.05-2.35-1.65-.26-.26-.46-.46-.39-.78.41-1.52,7.22-1.6,10.34-.02,2.21.72,10.96,5.3,7.96,6.8l-.09.04Z"/>
      <path class="cls-9" d="M523.69,336.59c1.02,11.89.72,31.04,0,43.78-.25.72-.33-2.16-.4-3.32-.22-5.51-.27-12.47-.26-18.72.05-6.26.03-17.85.65-21.73h0Z"/>
      <path class="cls-14" d="M377.79,348.44c-.51-.93.12-2.81.26-3.98,1.28-5.61,3.37-13.81,6.29-18.57.62-.56.43.83.35,1.63-.7,5.05-2.93,12.48-4.85,17.23-.97,2.42-1.69,3.72-2.01,3.7h-.03Z"/>
      <path class="cls-14" d="M505.76,333.88c.08-.02.16.18.24.58.24,1.35.35,3.07.46,4.59.42,5.32.48,15.14.14,20.14-.1,1.43-.17,3.1-.47,4.33-.09.3-.18.35-.27.16-.88-4.47-.81-10.37-.95-15.58.03-4.2.02-11.84.83-14.22h.02Z"/>
      <path class="cls-9" d="M513.5,299.16c.04-.62.99-.19,1.48-.06,3.2,1.25,6.65,3.75,9.04,6.89.69.63,4.01,6.73,1.24,4.93-3.55-2.84-9.68-7.85-11.76-11.71v-.05Z"/>
      <path class="cls-9" d="M198.33,103.18c-1.71-.18,1.26-22.82,3.26-20.29,1.37,2.87-.75,18.99-3.22,20.3h-.04Z"/>
      <path class="cls-15" d="M553.06,318.19c-1.72-2.01-1.55-15.58-.35-18.32,1.94-.71,1.75,17.67.38,18.31h-.03Z"/>
      <path class="cls-9" d="M482.39,66.88c-.2,1.33-20.95,1.52-19.31-.38,2.58-1.23,17.64-1.44,19.31.35v.04Z"/>
      <path class="cls-6" d="M90.47,293.47c1.23-3.99,6.41-8.02,9.76-10.65,3.13-2.45.34,4.28-.53,5.49-1.69,2.76-4.41,4.78-6.81,5.73-.81.3-2.57.9-2.42-.49v-.09Z"/>
      <path class="cls-9" d="M188.18,67.43c0,1.71-22.96,1.7-21.1-.72,2.7-1.8,18.91-2.03,21.1.68v.04Z"/>
      <path class="cls-9" d="M262.52,349.65c-1.12-.12-5.15-26.75-3.22-25.25,2.1,5.79,3.19,16.44,3.53,22.17-.04.99.19,2.4-.29,3.08h-.02Z"/>
      <path class="cls-9" d="M485.08,337.38c-2.04,1.73-10.12-5.55-7.15-7.37,2.43-.76,8.6,4.9,7.23,7.3l-.07.07Z"/>
      <path class="cls-14" d="M455.11,386.47c.13-.68,1.26-.98,1.91-1.35,3.85-1.61,11.23-4.2,15.87-3.99.78.23-.09.7-.71,1.08-3.58,1.9-9.47,3.67-13.49,4.3-2.1.33-3.37.3-3.56,0l-.02-.03Z"/>
      <path class="cls-9" d="M485.24,304.5c-1.63-3.62-2.85-11.43-3.23-15.81-.38-4.34.34-5.39,1.68-.81,1.16,3.97,2.37,10.88,2.25,14.8-.04.51-.04,2.43-.67,1.88l-.04-.05Z"/>
      <path class="cls-9" d="M227.12,300.07c-.11,1.08-23.32,2.38-22.07.81,5.09-1.54,14.41-1.55,19.4-1.38.89.12,2.1.03,2.68.55v.03Z"/>
      <path class="cls-3" d="M59.77,337.27c1.95-.69,6.27-.7,8.89-.58,2.69,0,10.58,1.06,3.51,1.96-1.1.36-15.09.22-12.5-1.34l.1-.04Z"/>
      <path class="cls-9" d="M396.87,174.28c-3.08,2.45-8.81,5.51-12.91,5.73-.84-.03-.13-.69.19-.99,1.16-1.08,4.51-3.41,7.69-4.64.94-.43,8.02-2.93,5.14-.21l-.11.1Z"/>
      <path class="cls-14" d="M377.09,204.77c.92-2.03,14.06-7.19,16.76-7.03,1.7,1.18-16.01,8.22-16.74,7.06l-.02-.03Z"/>
      <path class="cls-9" d="M320.96,66.57c.6-1.46,13.85-2.06,15.85-1.28.58.32-.11.51-.68.71-3.94.9-11.52,1.77-15.14.6l-.03-.03Z"/>
      <path class="cls-14" d="M58.42,267.55c-.23,1.1-16.05,3.25-15.61,1.62,3.45-1.49,10.05-1.97,13.62-2.04.66.06,1.59-.05,1.99.38v.03Z"/>
      <path class="cls-13" d="M40.37,385.49c-.71,1.43-11.22-3.57-12.84-4.85-3.15-2.17-.09-1.59,1.96-.84,3.13,1.13,8.81,3.4,10.86,5.64l.02.05Z"/>
      <path class="cls-15" d="M57.4,372.54c-2.88.91-8.81-1.25-11.9-2.38-.88-.38-3.98-1.65-2.79-2.19,2.36-.62,14.38,2.67,14.71,4.53l-.03.04Z"/>
      <path class="cls-9" d="M342.19,190.99c-.42.42-1.37.41-2.05.55-3.8.37-10.7.74-14.61-.06-1.04-1.2,16.27-1.37,16.67-.52v.03Z"/>
      <path class="cls-6" d="M249.36,193.61c1.92-.83,11.58,4.16,12.69,5.89.37,2.16-13.08-4.6-12.7-5.85l.02-.04Z"/>
      <path class="cls-13" d="M178.51,360.49c1.85-.37,5.97,8.68,5.73,10.75-.1.59-.48.42-.93.03-1.9-1.88-3.58-5.51-4.46-8.07-.46-1.4-.59-2.34-.39-2.66l.04-.05Z"/>
      <path class="cls-9" d="M626.43,305.1c-.51.89-15.26-3.69-13.99-4.75,3.62-.02,9.66,2.32,12.62,3.67.48.29,1.26.56,1.38,1.05v.03Z"/>
      <path class="cls-13" d="M338.74,351.53c2.63,0,4.3,5.61,1.14,6.03-2.71.08-4.21-5.7-1.29-6.03h.15Z"/>
      <path class="cls-14" d="M21.02,312.68c-.35-.38-.05-1.16.04-1.69.7-2.7,3.2-7.99,4.91-9.85,3.22-2.65-3.83,12.14-4.91,11.55h-.04Z"/>
      <path class="cls-9" d="M273.38,181.77c-.42.33-1.22.06-1.8-.02-2.97-.75-8.3-2.5-10.34-4.48-.31-1.78,12.38,3.32,12.15,4.46v.04Z"/>
      <path class="cls-9" d="M459.86,69.74c.28,1.62-5.59,6.71-7.26,6.58-1.13-1.17,5.95-7.32,7.22-6.63l.04.05Z"/>
      <path class="cls-9" d="M19.75,336.53c-.32-.45-.27-1.33-.37-1.99-.22-3.58-.5-9.85.26-13.52.45-.64.52,2.97.58,3.78.06,3.16.36,9.15-.45,11.73h-.02Z"/>
      <path class="cls-14" d="M308.61,5.66c.47,1.82-5.53,6.46-7.11,6.23-1.78-.99,5.95-7.17,7.06-6.28l.05.05Z"/>
      <path class="cls-14" d="M484.47,303.68c1.5.96-1.21,9.88-2.73,11.09-2.01.49,1.37-11,2.67-11.07h.06Z"/>
      <path class="cls-9" d="M383.19,179.94c-.62,1.67-9.31,4.3-10.9,3.8-1.2-1.24,10.26-4.86,10.88-3.84l.02.04Z"/>
      <path class="cls-14" d="M42.69,269.77c-.55,1.02-3.74,2.03-5.39,2.6-2.03.54-4.47,1.51-6.31,1.24-.29-1.35,10.8-4.66,11.69-3.88v.04Z"/>
      <path class="cls-14" d="M60.1,337.53c-.23.53-.37-.08-.47-.45-.79-3.87-.86-9.02-.24-13.13.65-4.02,1.26,4.11,1.25,5.27.09,2.39-.06,6.56-.52,8.24l-.02.07Z"/>
      <path class="cls-14" d="M485.74,366.77c1.56.98-1.28,6.58-2.71,7.18-2.39.43,1.19-7.48,2.62-7.18h.09Z"/>
      <path class="cls-9" d="M57.08,372.2c-.05-.07,0-.13.18-.2.37-.12.86-.18,1.34-.23,3.15-.27,9.54-.59,13.08.2.49.24-.12.33-.6.43-3.78.46-10.52.81-13.99-.17l-.03-.03Z"/>
      <path class="cls-14" d="M506.02,376.74c1.59.2.83,7.85-.21,8.75-1.61,1.36-.98-8.61.14-8.72l.07-.03Z"/>
      <path class="cls-14" d="M506.46,366.67c.52,1.03.47,3.59.32,5.06-.06,1.4-1.04,5.84-1.57,2.18-.29-1.17.01-8.18,1.21-7.31l.05.07Z"/>
      <path class="cls-13" d="M200.44,384.08c-.33,1.67-5.99-1.4-6.64-2.45-.89-1.01.18-1.21,1.17-.96,1.73.41,4.7,1.75,5.45,3.31l.02.09Z"/>
      <path class="cls-9" d="M409.16,165.73c0,1.68-6.45,5.27-7.9,5.02-1.46-.96,7.06-5.88,7.86-5.06l.04.04Z"/>
      <path class="cls-5" d="M387.19,319c-.97-1.45,1.15-8.29,2.32-9.21,1.61-.24-1.15,9.3-2.27,9.23l-.05-.02Z"/>
      <path class="cls-14" d="M571.24,373.74c1.4-.6,5.09,3.24,4.96,4.68-.81,1.46-5.64-3.58-5.01-4.62l.05-.06Z"/>
      <path class="cls-13" d="M201.28,303.34c.09,1.58-5.4,3.86-6.86,3.45-1.62-1.08,6.14-4.48,6.82-3.51l.04.06Z"/>
      <path class="cls-7" d="M11.6,289.5c.31,2.78-.99,4.42-3.59,5.18.84-1.98,1.76-3.9,3.59-5.18Z"/>
      <path class="cls-14" d="M533.96,303.6c.54,1.12-5.48,5.2-5.99,3.69.1-1.31,4.65-4.44,5.95-3.76l.04.06Z"/>
      <path class="cls-13" d="M20,375.04c.87-.77,6.81,2.52,6.05,3.75-1.3.48-6.14-2.34-6.08-3.69l.04-.06Z"/>
      <path class="cls-9" d="M349.33,11.52c-1.47.7-5.79-3-5.95-4.53.64-1.79,6.69,3.28,6,4.46l-.05.06Z"/>
      <path class="cls-9" d="M455.05,104.96c1.08-.73,4.24,2.11,4.14,3.4-.68,1.39-4.65-2.33-4.19-3.32l.05-.08Z"/>
      <path class="cls-14" d="M299.16,13.98c1.02.99-.95,4.7-2.24,4.97-1.7-.28,1-5.21,2.16-5l.08.03Z"/>
      <path class="cls-14" d="M199.99,124.45c-1.2.7-6.33-1.82-4.08-3.28,1.72-.92,4.93,1.25,4.16,3.21l-.08.07Z"/>
      <path class="cls-14" d="M628.27,380.89c-.55-1.38,3.13-3.68,4.35-3.32,1.39.98-3.4,4.02-4.28,3.38l-.07-.06Z"/>
      <path class="cls-9" d="M222.85,151.01c-1.39.54-4.84-3.42-4.77-4.77.78-1.43,5.37,3.76,4.82,4.71l-.05.06Z"/>
      <path class="cls-6" d="M147.11,322.55c-.41-1.28,2.96-3.24,4.11-3.01,1.47.63-3.38,3.67-4.04,3.06l-.07-.05Z"/>
      <path class="cls-7" d="M14.86,285.64c.77.93-1.31,4.32-2.6,3.86-.93-.87,1.41-4.27,2.51-3.92l.08.06Z"/>
      <path class="cls-14" d="M397.07,195.87c-.14-1.24,3.65-2.81,4.7-2.47,1.08.99-4.02,3.09-4.64,2.52l-.05-.06Z"/>
      <path class="cls-14" d="M473.12,380.81c-.17-1.19,3.58-3.23,4.83-2.99,1.33.82-4.15,3.8-4.79,3.06l-.05-.06Z"/>
      <path class="cls-9" d="M457.24,122.68c-.37.83-6.18-.03-4.8-1.26.91-.46,4.55-.01,4.83,1.19l-.03.08Z"/>
      <path class="cls-14" d="M478.02,377.7c-.33-.97,2.11-3.05,3.03-2.91.83.56-2.34,3.26-2.97,2.96l-.06-.05Z"/>
      <path class="cls-9" d="M254.28,172.64c-.41.71-5.85-.84-4.65-1.75.73-.36,4.68.63,4.69,1.68l-.04.07Z"/>
      <path class="cls-9" d="M488.18,107.82c-.61-.95,1.52-3.1,2.52-3.04,1.29.51-1.62,3.47-2.44,3.09l-.08-.05Z"/>
      <path class="cls-13" d="M191.78,308.69c1.22.92-.81,3.43-2.13,2.49-.92-1.04.92-2.85,2.01-2.55l.12.06Z"/>
      <path class="cls-14" d="M524.42,313.32c-.66-.84,1.46-4,2.48-3.44.82.93-1.32,3.93-2.41,3.51l-.07-.07Z"/>
      <path class="cls-13" d="M184.4,371.68c.96-.36,2.79,2.01,2.74,2.94-.45,1.13-3.13-2.28-2.78-2.87l.05-.07Z"/>
      <path class="cls-9" d="M217.98,145.92c-1.11.67-4.08-2.34-3.91-3.62.73-1.35,4.47,2.6,3.96,3.55l-.05.07Z"/>
      <path class="cls-9" d="M261.27,176.61c-1,.73-4.64-1.17-5.09-2.34.14-1.48,5.41,1.31,5.12,2.27l-.04.07Z"/>
      <path class="cls-14" d="M164.12,70.72c.37.71-2.83,2.28-3.22,1.76-.6-.88,2.59-2.37,3.17-1.83l.05.08Z"/>
      <path class="cls-7" d="M19.1,281.73c.6,1.05-1.92,3.09-2.89,2.75-1.13-.82,1.97-3.29,2.81-2.81l.08.07Z"/>
      <path class="cls-9" d="M347.11,58.85c-.42-.52,2.48-3.33,2.94-3.08.77.35-2.37,3.36-2.89,3.12l-.05-.04Z"/>
      <path class="cls-9" d="M483.13,110.7c-.09-1.06,3.03-2.18,3.85-1.77.9.91-3.29,2.5-3.8,1.85l-.05-.07Z"/>
      <path class="cls-9" d="M462.98,125.75c-.58.79-4.4-.84-3.66-1.86.57-.59,3.91.8,3.7,1.78l-.04.08Z"/>
      <path class="cls-13" d="M189.12,376.88c.66-.64,3.3,2.07,2.95,2.7-.59,1.09-3.4-1.87-3.01-2.63l.06-.07Z"/>
      <path class="cls-9" d="M339.15,63.81c-.05-1.04,3.04-2.27,3.88-1.91.84.86-3.31,2.58-3.83,1.98l-.05-.07Z"/>
      <path class="cls-14" d="M159.32,104.81c.62-.64,3.15,1.9,2.94,2.56-.36,1.3-3.4-1.77-2.99-2.49l.05-.07Z"/>
      <path class="cls-11" d="M246.99,311.89c-.65.41-2.25-2.32-1.75-2.81.83-.56,2.35,2.15,1.83,2.75l-.08.05Z"/>
      <path class="cls-14" d="M479.15,317.85c-.71-.48.89-3.59,1.8-2.98.54.77-.86,3.08-1.72,3.02l-.09-.04Z"/>
      <path class="cls-7" d="M6.86,358.95c1.29.5,2.6,1,1.42,2.77-.47-.92-.94-1.85-1.42-2.77Z"/>
      <path class="cls-9" d="M213.96,141.98c-.98.43-3.38-2.43-2.92-3.35.84-.43,3.22,2.52,2.97,3.28l-.05.07Z"/>
      <path class="cls-9" d="M523.75,386.83c-.8-.57-.66-4.13-.17-4.88.84-.47.72,4.62.22,4.86l-.05.02Z"/>
      <path class="cls-14" d="M474.16,321.92c-.45-.7,2.5-2.64,3.05-1.91.24.92-2.26,2.38-2.98,1.98l-.07-.07Z"/>
      <path class="cls-9" d="M372.16,183.77c.3.75-2.12,1.67-2.71.88-.36-1.01,2.14-1.41,2.65-.97l.06.09Z"/>
      <path class="cls-14" d="M574.21,310.95c.69.54.02,1.47-.71,1.53-1.53.07-.26-1.73.58-1.57l.14.04Z"/>
      <path class="cls-9" d="M344.22,61.1c-.46-.62,2.29-2.52,2.83-2.17.94.63-2.2,2.66-2.76,2.23l-.06-.06Z"/>
      <path class="cls-14" d="M572.73,312.49c.56.48-1.13,2.44-1.66,2.21-.72-.39,1.03-2.34,1.58-2.25l.09.04Z"/>
      <path class="cls-14" d="M338.53,356.77c.85-.5,2.1,2.4,1.63,2.9-.87,1.08-2.33-2.24-1.71-2.82l.08-.07Z"/>
      <path class="cls-13" d="M194.2,306.83c.4.47-1.56,1.98-2.02,1.71-.7-.48,1.46-1.98,1.95-1.77l.07.05Z"/>
      <path class="cls-9" d="M414.28,161.91c.3.44-2.05,2.07-2.36,1.72-.17-.31.19-.52.44-.78.47-.37,1.29-1.06,1.87-.99l.05.05Z"/>
      <path class="cls-14" d="M571,314.55c.44.39-1.25,2.43-1.68,2.28-.72-.31,1.11-2.4,1.61-2.31l.07.03Z"/>
      <path class="cls-6" d="M143.07,327.25c-.35-.42,1.53-2.53,1.93-2.43.78.2-1.47,2.59-1.88,2.47l-.06-.04Z"/>
      <path class="cls-7" d="M11.24,365.77c.41-.36,2.01,1.63,1.81,2.04-.37.66-2.01-1.55-1.85-1.97l.04-.06Z"/>
      <path class="cls-7" d="M25.14,277.87c.14.42-2.11.93-2.25.4.03-.36.5-.44.78-.56.41-.11,1.2-.21,1.44.07l.03.09Z"/>
      <path class="cls-4" d="M121,387.09c.27-.36,1.4-.37,1.99-.37.68.07,1.71-.02,2.1.48.14.64-4.24.51-4.1-.05v-.07Z"/>
      <path class="cls-4" d="M120.85,320.72c.55,0,.57,2.96.08,3.02-.71-.05-.64-2.71-.16-3.01h.08Z"/>
      <path class="cls-11" d="M245.12,308.67c-.62.34-2.81-1.1-1.15-1.13.46.05,1.5.47,1.25,1.07l-.1.07Z"/>
      <path class="cls-4" d="M121.02,300.92c.43.65.14,2.02-.2,2.69-.23.39-.58-.12-.57-1.04.02-.97.41-1.8.69-1.69l.08.04Z"/>
      <path class="cls-6" d="M145.14,324.83c-.37-.35,1.5-2.2,1.91-2.05.64.31-1.41,2.18-1.84,2.09l-.06-.03Z"/>
      <path class="cls-15" d="M39.27,365.69c-.56.54-3.16-.82-1.5-1.03.44-.02,1.66.42,1.56.95l-.06.08Z"/>
      <path class="cls-9" d="M484.67,68.71c-.59.65-3.94-1.16-1.65-1.09.5.09,1.71.47,1.7,1.01l-.05.08Z"/>
      <path class="cls-9" d="M190.71,69.72c-.61.44-1.95-.1-2.35-.67-.35-1.16,2.71.01,2.4.58l-.04.09Z"/>
      <path class="cls-9" d="M100.35,282.44c-.18-.34.04-1.14.14-1.66.19-.66.31-1.47.73-1.93.52-.26-.52,3.85-.82,3.61h-.04Z"/>
      <path class="cls-9" d="M438.11,165.89c-.35-.33,1.51-2.21,1.9-2.08.62.27-1.43,2.19-1.84,2.11l-.06-.03Z"/>
      <path class="cls-13" d="M18.33,373.61c.54-.62,2.16.78,1.78,1.23-.33.14-.68-.12-.98-.26-.33-.21-.76-.52-.82-.86v-.1Z"/>
      <path class="cls-13" d="M183.97,316.53c.23.37-1.22,3.22-1.07,1.7.07-.4.6-1.68,1.02-1.74l.05.04Z"/>
      <path class="cls-9" d="M256.23,173.71c-.48.36-1.79-.17-2-.58-.14-.84,2.18-.05,2.05.5l-.05.08Z"/>
      <path class="cls-9" d="M357.06,362.03c-.07-.1-.94-.34-.91-.24-.08.06.78.33.89.28v-.04Z"/>
      <path class="cls-13" d="M186.04,313.7c.05.5-.65,1.76-.97,1.97-.47,0,.61-2.04.93-2.01l.04.04Z"/>
      <path class="cls-13" d="M336.51,350.69c.58-.57,1.26,1.52.9,1.85-.13.15-.23.16-.41-.01-.41-.37-.7-1.22-.54-1.73l.05-.11Z"/>
      <path class="cls-9" d="M628.07,306.7c-.48.32-1.47-.16-1.75-.63-.41-1.22,2.26-.21,1.83.54l-.08.09Z"/>
      <path class="cls-14" d="M528.01,307.65c.43.56-1.2,3.18-1.19,1.52.04-.43.6-1.67,1.12-1.58l.07.06Z"/>
      <path class="cls-9" d="M400.77,170.53c1.16.47.23,1.65-.9,1.44-.82-.09-1.13-.57-.66-1.05.32-.33.9-.52,1.36-.44l.19.05Z"/>
      <path class="cls-14" d="M195.11,122.55c-.19.55-1.56,1.1-2,.98-.62-.52,1.68-1.54,1.99-1.06l.02.09Z"/>
      <path class="cls-7" d="M10.11,363.81c.34.71.68,1.42,1.02,2.13-.75-.51-1.32-1.12-1.02-2.13Z"/>
      <path class="cls-9" d="M58.24,267.22c-.19-.28,2.17-.55,1.73.04-.46.22-1.29.33-1.7.03l-.03-.07Z"/>
      <path class="cls-9" d="M399.09,171.69c.33.62-1.53,1.47-1.93,1.15-.78-.69,1.37-1.57,1.85-1.22l.08.08Z"/>
      <path class="cls-15" d="M41.26,366.87c0,.28-2.24-.68-2.05-1.01.35-.09.74.15,1.06.27.35.18.84.42,1,.69v.05Z"/>
      <path class="cls-9" d="M412.13,163.6c-.06.44-3.1,1.58-1.98.58.32-.26,1.59-.87,1.96-.64l.02.06Z"/>
      <path class="cls-9" d="M441.28,163.05c-.19-.41,1.53-3.18,1.25-1.62-.1.41-.76,1.64-1.21,1.66l-.04-.04Z"/>
      <path class="cls-14" d="M395.12,196.99c-.17-.39,2.18-1.25,2.3-.82-.06.42-.52.53-.91.72-.38.15-1.08.36-1.36.17l-.04-.07Z"/>
      <path class="cls-14" d="M193.08,123.51c-.15.57-1.51,1.19-1.96,1.09-.64-.49,1.6-1.65,1.93-1.18l.02.09Z"/>
      <path class="cls-9" d="M459.29,123.63c-.45.48-3.29-.87-1.55-.88.45.07,1.5.33,1.59.8l-.04.07Z"/>
      <path class="cls-14" d="M189.2,125.82c-.13.54-1.29.86-1.81.88-.59,0-.54-.43.19-.77.66-.33,1.46-.41,1.59-.19l.03.08Z"/>
      <path class="cls-14" d="M191.12,124.61c-.21.52-1.55,1.08-1.98,1-.6-.43,1.7-1.49,1.97-1.07v.08Z"/>
      <path class="cls-7" d="M13.03,367.82c.07-.24,1.41,1.9.95,1.93-.37-.22-.58-.66-.78-1.03-.08-.21-.32-.7-.22-.87l.05-.03Z"/>
      <path class="cls-9" d="M491.08,104.89c-.21-.08,1.18-2.04,1.46-1.87.01.33-.28.62-.44.89-.24.31-.71.95-.99,1.01l-.04-.03Z"/>
      <path class="cls-9" d="M196.32,105.01c-.42-.51,1.1-3.23,1.1-1.58-.04.42-.54,1.68-1.03,1.64l-.07-.05Z"/>
      <path class="cls-9" d="M463.12,67.58c-.32.45-1.42.8-1.98.96-1.79.29,1.65-1.43,1.96-1.02v.05Z"/>
      <path class="cls-9" d="M337.2,65c.09-.37,3.15-1.53,1.83-.59-.4.23-1.38.72-1.81.63l-.02-.04Z"/>
      <path class="cls-9" d="M350.23,55.96c-.27-.3.36-1.42.89-.99-.02.44-.4.87-.81,1.03l-.08-.04Z"/>
      <path class="cls-9" d="M477.95,280.65c-.43.18-1.13-1.81-.48-1.91.59.14.98,1.46.58,1.88l-.09.04Z"/>
      <path class="cls-9" d="M312.98,3.47c-.07.27-.69.75-1,.96-.79.53-1.23.37-.76-.13.26-.34,1.35-1.06,1.74-.88l.02.05Z"/>
      <path class="cls-14" d="M575.87,378.94c.37-.19,3.17,1.37,1.67,1.13-.4-.09-1.65-.67-1.7-1.09l.04-.04Z"/>
      <path class="cls-14" d="M578.87,380.99c.31-.34,1.48.14,1.1.77-.45.06-.93-.29-1.13-.68l.03-.09Z"/>
      <path class="cls-14" d="M568.95,316.55c.19.34-1.29,3.2-1.06,1.71.08-.39.62-1.66,1.02-1.75l.04.03Z"/>
      <path class="cls-7" d="M23.16,278.61c-.06.45-3.03,1.59-1.95.6.31-.27,1.57-.88,1.94-.66l.02.06Z"/>
      <path class="cls-12" d="M432.03,387.2c.05-.35,2.04-.51,2.12,0-.3.24-.77.2-1.14.24-.25-.02-.82-.02-.96-.17l-.02-.06Z"/>
      <path class="cls-9" d="M434.22,169.88c.06-.05,1.06-.99.99-.93.07-.06-.94.87-.99.93h0Z"/>
      <path class="cls-9" d="M437.21,167.12c.15-.19,1.83-2.38.44-.58-.24.32-.41.54-.44.58h0Z"/>
      <path class="cls-9" d="M410.12,164.63c.14.15-1.03,1.41-1.18.98-.11-.19.84-1.22,1.14-1.05l.04.06Z"/>
      <path class="cls-12" d="M4.38,353.76c.24.47.47.95.71,1.42-.24-.47-.47-.95-.71-1.42Z"/>
      <path class="cls-9" d="M442.9,161.27c-.19-.08-.18-.37.06-.37.24,0,.24.29.05.37h-.1Z"/>
      <path class="cls-14" d="M187.22,126.6c-.07.02-1.01.37-.95.34-.07.02.88-.32.95-.34h0Z"/>
      <path class="cls-7" d="M8.96,362.88c.41.34.82.67,1.23,1.01-.82.17-1.02-.42-1.23-1.01Z"/>
      <path class="cls-15" d="M42.31,367.65c-.25.27-1.3-.49-1-.87.23-.37,1.29.39,1.07.78l-.08.09Z"/>
      <path class="cls-7" d="M16.09,284.67c.11.17-.8,1.28-1.07.88-.21-.28.67-1.24,1.03-.97l.04.09Z"/>
      <path class="cls-9" d="M487.1,108.98c.06-.06,1.18-1.21,1.11-1.14.07-.07-1.06,1.08-1.11,1.14h0Z"/>
      <path class="cls-14" d="M162.15,107.83s.83.72.97.85c.08.07.04.03-.12-.1-.23-.2-.6-.52-.85-.74h0Z"/>
      <path class="cls-9" d="M195.2,105.99c-.33-.14-.24-.95.26-1.18.47-.26.93.11.59.62-.16.22-.48.59-.73.59l-.12-.03Z"/>
      <path class="cls-4" d="M120.83,316.74c.12,0,.26.79.16,1.02-.15.4-.32-.7-.2-1l.04-.02Z"/>
      <path class="cls-13" d="M185.1,315.67c.09.11-.92,1.24-1.15.95-.15-.2.82-1.22,1.12-1.02l.03.07Z"/>
      <path class="cls-12" d="M64.18,284.38s.98-.06,1.37-.09c.73-.05-1.18.07-1.37.09h0Z"/>
      <path class="cls-9" d="M485.97,368.67c-.11-.13.16-.84.28-.73.15,0-.06.74-.21.76l-.07-.03Z"/>
      <path class="cls-4" d="M120.75,313.71c.13,0,.32.79.23,1.03-.13.42-.39-.68-.27-1l.05-.03Z"/>
      <path class="cls-9" d="M452.99,76.56c.1.1-.76,1.35-1.01,1.09-.17-.17.65-1.33.98-1.16l.04.07Z"/>
      <path class="cls-14" d="M161.07,72.52c.14.11-.97,1.53-1.13,1.15-.11-.17.79-1.32,1.1-1.21l.04.06Z"/>
      <path class="cls-12" d="M79.27,370.05c.4.32-.26.94-.66.91-1.11-.03-.1-1.22.54-.97l.12.06Z"/>
      <path class="cls-12" d="M70.39,371.72s-1.01.03-1.18.04c-.35.01.86-.03,1.18-.04h0Z"/>
      <path class="cls-9" d="M628.13,306.78s-.02.07-.02.07c0,0,.02-.07.02-.07Z"/>
      <path class="cls-9" d="M343.21,62.04c-.13-.12,1-1.4,1.15-1,.1.17-.83,1.21-1.12,1.06l-.03-.06Z"/>
      <path class="cls-4" d="M120.89,328.77c.14.02.18.82.02,1.03-.25.37-.28-.72-.07-1.01l.06-.02Z"/>
      <path class="cls-14" d="M570.04,372.79c.05.05,1.13,1.11,1.06,1.05.07.07-1.01-1-1.06-1.05h0Z"/>
      <path class="cls-14" d="M481.21,374.92c-.09-.14.86-1.27,1.11-.91.18.24-.75,1.22-1.08.98l-.03-.08Z"/>
      <path class="cls-7" d="M20.05,280.44c.1.03-.72,1.37-.96,1.26-.22-.08.69-1.37.92-1.29l.04.03Z"/>
      <path class="cls-13" d="M187.06,374.88c.15-.1,1.26.83.88,1.09-.26.19-1.22-.72-.96-1.05l.08-.04Z"/>
      <path class="cls-9" d="M492.24,103.07c-.16-.14.97-1.44,1.13-1.06.13.19-.79,1.26-1.08,1.12l-.04-.06Z"/>
      <path class="cls-13" d="M188.05,375.89c.15-.1,1.27.81.9,1.07-.25.19-1.23-.7-.98-1.03l.08-.04Z"/>
      <path class="cls-9" d="M351.27,13.8c-.11.09-1.17-1.05-.72-1.2.24-.06,1,.96.79,1.18l-.07.03Z"/>
      <path class="cls-14" d="M300.2,12.7s-1.88,1.99-.58.61c.18-.19.4-.42.58-.61h0Z"/>
      <path class="cls-9" d="M350.41,12.63c-.33.12-1.32-1.04-.68-1.17.32-.1,1.16.8.79,1.14l-.11.03Z"/>
      <path class="cls-12" d="M34.29,271.93s-.8.46-1.11.64c-.6.34.96-.55,1.11-.64h0Z"/>
      <path class="cls-14" d="M301.19,11.63s-.37.39-.72.76c-.33.35-.5.53-.4.42.36-.38.75-.79,1.12-1.17h0Z"/>
      <path class="cls-14" d="M310.08,4.63c.09.06-1.08,1.22-1.23.84-.05-.21,1-1.06,1.21-.9l.02.06Z"/>
      <path class="cls-13" d="M192.09,379.76s1.06,1.08,1,1.02c.06.06-.95-.97-1-1.02h0Z"/>
      <path class="cls-14" d="M577.92,379.92c.16-.13,1.36.77.98,1.05-.26.22-1.33-.62-1.07-1l.09-.05Z"/>
      <path class="cls-14" d="M311.26,4.15c.25.16-.07.69-.58.76-.5.08-.73-.22-.26-.53.21-.14.47-.26.72-.28l.12.05Z"/>
      <path class="cls-14" d="M477.09,319.91c.18-.15,2.32-1.91.57-.47-.31.25-.53.43-.57.47h0Z"/>
      <path class="cls-14" d="M472.65,322.91c0-.37,1.97-1.49,1.54-.64-.17.26-1.18.96-1.53.72v-.07Z"/>
      <path class="cls-14" d="M394.21,197.89c-.1-.08.92-1.24,1.1-.86.08.21-.85,1.08-1.07.92l-.03-.06Z"/>
      <path class="cls-13" d="M183.09,318.65c.1.12-.87,1.25-1.11.96-.16-.2.76-1.24,1.07-1.04l.03.07Z"/>
      <path class="cls-9" d="M612.2,300.86c-.05-.05-1.04-.9-.98-.84-.07-.06.92.79.98.84h0Z"/>
      <path class="cls-12" d="M93.11,383.65s.87-.45,1.21-.63c.65-.34-1.04.55-1.21.63h0Z"/>
      <path class="cls-4" d="M120.82,385.83c.14.09.26.44.28.74.04.3-.04.41-.19.29-.28-.16-.41-1.11-.19-1.07l.09.04Z"/>
      <path class="cls-9" d="M477.14,278.85c-.11.12-.69-.29-.92-.68-.18-.3-.1-.46.16-.31.32.23.67.53.79.92l-.04.06Z"/>
      <path class="cls-14" d="M568.05,318.64c.12.08-.86,1.31-1.05.97-.1-.21.78-1.17,1.01-1.03l.04.06Z"/>
      <path class="cls-12" d="M410.05,387.29c0-.16.96-.21,1.09-.06.23.2-.8.29-1.07.13l-.02-.07Z"/>
      <path class="cls-12" d="M443.05,387.19c.34.01,2.05.08.33.01-.08,0-.25,0-.33-.01h0Z"/>
      <path class="cls-9" d="M420.91,337.41c.72,4.83.21,14.36,1.53,20.03,3.11,17.44,18.09,16.69,31.47,16.01,1.31-.02,2.78-.06,3.95.07.35.05.51.12.48.2-2,.9-8.03,1.44-11.69,1.73-26.74,2.12-27.57-17.83-25.75-38.04h0Z"/>
      <path class="cls-6" d="M459.08,286.59c-2.9,1.18-12.15-.15-17.19-.42-3.59-.35-7.14-.81-10.02-1.17-3.37-.57-6.29-.57-8.34-1.85-.32-1.84,9.69-1.78,11.44-1.78,6.06-.04,14.72,1.69,19.41,3.05,1.45.41,3,.88,4.08,1.45.52.28.74.52.64.7l-.02.03Z"/>
      <path class="cls-9" d="M421.07,287.73c.46.96.3,2.59.44,3.82.33,17.13,2.5,27.37,22.08,30.45,3.77.46,3.48.73-.2.78-22.17-.84-24.46-17.14-22.33-35.04h0Z"/>
      <path class="cls-14" d="M453.92,334.46c-1.1.75-3.09.52-4.53.69-6.21.1-14.65.03-20.19-1.46-1.23-2.13,24.26-.84,24.72.74v.03Z"/>
      <path class="cls-14" d="M464,312.02c-1.61-.33,2.3-22.04,3.88-15.32.72,2.26-.99,14.65-3.84,15.35l-.05-.03Z"/>
      <path class="cls-14" d="M467.66,365.16c-1.31-.7,4.72-21.09,4.6-12.92-.07,2.41-2.69,12.9-4.57,12.96l-.03-.04Z"/>
      <path class="cls-14" d="M460.98,368.54c.01-1.08,2.97-2.28,3.87-2,.98.89-3.27,2.69-3.83,2.07l-.04-.07Z"/>
      <path class="cls-14" d="M464.9,366.33c-.3-.73.67-1.73,1.37-1.86,1.53.1-.62,2.63-1.29,1.95l-.08-.09Z"/>
      <path class="cls-6" d="M460.06,288.91c-.06-.05-1.14-1.11-1.07-1.05-.06-.07,1.02.99,1.07,1.05h0Z"/>
      <path class="cls-3" d="M78.36,370.89c0-.08.92-.25.78.04-.1.15-.78.19-.79.03v-.07Z"/>
      <path class="cls-14" d="M625.46,362.8c-.71-.38-.68-3.12-.29-7.42.27-3.12.7-7.08.69-11.17.18-6.18-1.21-12.16-.97-17.65.64-2.22,2.94,3.22,3.3,3.99,3.48,7.63,4.61,16.83,1.21,25.68-.86,2.17-2.23,6.55-3.9,6.6l-.04-.02Z"/>
      <path class="cls-14" d="M611.82,315.27c.21,1.72-21.78,4.88-19.63,2,2.76-2.23,17.36-4.66,19.64-2.05v.05Z"/>
      <path class="cls-9" d="M579.48,335.71c1.34-.06,3.01,22.94.79,20.61-1.71-2.83-2.89-18.97-.83-20.63h.04Z"/>
      <path class="cls-9" d="M607.44,372.73c-.25-1.11,11.27-5.92,10.66-3.88-.95,1.52-9.13,5.08-10.65,3.93v-.05Z"/>
      <path class="cls-14" d="M618.78,320.68c-.94.98-8.15-3.21-6-4.14,1.47-.49,6.94,2.45,6.07,4.09l-.07.05Z"/>
      <path class="cls-14" d="M623.11,325.6c-1.33.58-5.87-4.88-2.92-4.68,1.33.23,4.21,3.26,3.02,4.64l-.09.04Z"/>
      <path class="cls-13" d="M325.78,195.13c-.41.06-.57-.15-.06-.25.48-.14.61.07.25.2l-.2.05Z"/>
      <path class="cls-13" d="M322.19,212.67s-1.14.03-.99,0c-.02-.01.85-.02.97-.02h.02Z"/>
      <path class="cls-14" d="M337.52,352.56c-.22-.35-.68-1.71-.02-1.68.16.07.36.34.52.69.45.9.15,1.84-.4,1.14l-.1-.16Z"/>
      <path class="cls-13" d="M322.23,64.57c-11.85,1.06-23.18-7.82-27.94-18.31-5.94-12.69.16-25.04,14.78-21.53,8.67,2.39,7.08,12.5,9.89,19.26,1.48,3.79,4.35,7.11,6.61,10.47,4.35,6.25,2.86,9.66-3.17,10.1l-.16.02Z"/>
      <path class="cls-13" d="M296.18,381.8s-.82-.43-.65-.33c.16.09.73.38.69.36l-.04-.02Z"/>
      <path class="cls-13" d="M232.98,317.71c-.29.66-2.17.95-5.31,1.19-4.5.53-11.55.43-16.17-.24-2.1-.23-3.75-.42-4.84-.69-.97-.24-1.5-.54-1.56-.91.03-.9,1.56-1.49,2.55-1.93,5.65-2.22,14.2-2.12,20.03-.51,1.6.46,3.57,1.17,4.76,2.07.47.37.66.7.56.98l-.02.05Z"/>
      <path class="cls-14" d="M207.37,372.23c2.23-1.5,8.81-2.18,12.6-2.62,3.88-.59,19.28-.04,7.84,3.27-5.49,1.41-13.73,2.31-19.08.65-.54-.22-1.7-.56-1.4-1.26l.03-.04Z"/>
      <path class="cls-14" d="M195.79,332.67c1.4.09-.69,17.85-2.18,12.96-.48-2.11.16-11.8,2.14-12.98l.05.02Z"/>
      <path class="cls-14" d="M198.9,325.66c.64.5-2.09,7.73-2.95,6.9-.35-1.27,1.65-6.67,2.9-6.93l.05.03Z"/>
      <path class="cls-9" d="M195.48,352.77c.2-.02.33.16.48.35.66.99,1.65,3.95,1.28,5.43-.97,1.22-2.62-5.38-1.81-5.75l.06-.03Z"/>
      <path class="cls-9" d="M198.5,360.65c.76-.41,2.48,2.56,1.56,3.03-1,.19-2.24-2.25-1.65-2.97l.09-.06Z"/>
      <path class="cls-14" d="M200.17,324.85c.14.12-.82,1.24-1.02.87-.12-.24.72-1.12.97-.94l.05.07Z"/>
      <path class="cls-9" d="M201.27,364.8c-.23.52.47,1.7.97,1.69.74-.3-.2-2.18-.9-1.79l-.07.09Z"/>
      <path class="cls-9" d="M197.49,358.61c.64-.16,1.28,1.71.72,2.05-.7.05-1.17-1.53-.81-1.99l.09-.07Z"/>
      <path class="cls-9" d="M200.41,363.61c.38-.33,1.27.98.59,1.14-.45-.08-.8-.6-.67-1.05l.08-.09Z"/>
      <path class="cls-13" d="M234.11,321.27s-.51-.47-.92-.84c-.33-.3-.48-.44-.39-.35.38.34.97.88,1.31,1.19h0Z"/>
      <path class="cls-5" d="M397.46,172.97c.84-.24,1.34.65,1.32,1.4.05.94-.82,2.16-1.68,2.24-1.95,0-1.11-3.15.21-3.59l.15-.05Z"/>
      <path class="cls-5" d="M394.15,175.73s.74.52,1.04.73c.56.39-.89-.63-1.04-.73h0Z"/>
      <path class="cls-12" d="M404.76,296c-.28-.22-.28-.77-.36-1.15-.23-2.18-.41-6.25.27-8.12.98-.4.85,8.97.13,9.27h-.04Z"/>
      <path class="cls-12" d="M404.79,333.99c-.62-.21-.81-7.71.12-7.23.64,1.57.48,5.22.21,6.64-.06.23-.11.53-.29.6h-.04Z"/>
      <path class="cls-12" d="M404.73,304.01c-.45-.44-.42-1.74-.45-2.57.07-.89-.08-2.16.49-2.73.74.36.68,4.89.02,5.31h-.06Z"/>
      <path class="cls-12" d="M404.76,311.01c-.68-.47-.74-4.9.01-5.35.62.49.48,1.73.55,2.59-.02.83,0,2.38-.51,2.75h-.06Z"/>
      <path class="cls-12" d="M404.76,347.97c-.45-.44-.43-1.72-.47-2.55.06-.89-.09-2.16.48-2.73.73.35.7,4.87.05,5.29h-.06Z"/>
      <path class="cls-12" d="M404.72,325.01c-.57-.16-.65-4.66.19-4.26.43.4.52,3.86-.13,4.26h-.06Z"/>
      <path class="cls-12" d="M404.75,356.02c-.59-.16-.63-4.69.23-4.26.44.4.51,3.87-.16,4.26h-.06Z"/>
      <path class="cls-12" d="M404.75,318.01c-.59-.15-.69-4.67.17-4.25.44.4.56,3.86-.1,4.25h-.06Z"/>
      <path class="cls-12" d="M404.66,362.04c-.58-.23-.63-4.64.25-4.33.51.4.53,4.07-.18,4.34h-.07Z"/>
      <path class="cls-12" d="M404.81,274.02c-.35-.38-.39-1.53-.43-2.23.03-.71-.1-1.64.3-2.14.62-.24.73,4.53.19,4.37h-.05Z"/>
      <path class="cls-12" d="M404.68,281.05c-.56-.2-.66-4.65.19-4.34.5.39.56,4.07-.13,4.35h-.06Z"/>
      <path class="cls-12" d="M404.77,339.98c-.58-.61-.46-2.3-.19-3.1.23-.5.6-.02.65,1.08.07,1.02-.14,1.98-.39,2.01h-.07Z"/>
      <path class="cls-12" d="M404.72,285.05c-.16,0-.22-1.52.19-1.38.24.1.17,1.36-.11,1.4l-.08-.02Z"/>
      <path class="cls-12" d="M404.69,366.02c-.18.01-.28-1.52.15-1.38.26.09.23,1.35-.07,1.4h-.08Z"/>
      <path class="cls-8" d="M513.78,382.66c-1.61,1.18-3.84-1.68-1.82-2.71,1.36-.7,3.11,1.48,1.94,2.61l-.12.1Z"/>
      <path class="cls-8" d="M512.19,377.09c-.49.69-1.73-.16-.91-.74.45-.29,1.17.15.98.61l-.07.13Z"/>
      <path class="cls-12" d="M404.7,369.68c.75.78.66,5.17.09,6.05-.85.16-.73-5.76-.14-6.05h.05Z"/>
      <path class="cls-12" d="M404.71,380.69c.72.65.59,4.31.07,5.06-.84.2-.68-4.78-.12-5.06h.06Z"/>
      <path class="cls-8" d="M338.21,352.84s0,0,0,0,0,0,0,0Z"/>
      <path class="cls-7" d="M435.09,334.42s.81.04.98.04c.33.01-.74-.03-.98-.04h0Z"/>
      <path class="cls-7" d="M438.11,334.23c0-.17,1.05-.25.99.01,0,.15-.85.18-.97.06l-.02-.07Z"/>
      <path class="cls-7" d="M445.08,334.52c.07,0,1.11.1,1.04.09.07,0-.97-.08-1.04-.09h0Z"/>
    </g>
  </g>
</svg>